<svg xmlns="http://www.w3.org/2000/svg" width="400" height="439.413" viewBox="0 0 400 NaN"  xmlns:v="https://vecta.io/nano"><path d="M192.453 24.866l-9.644 5.574-7.407 4.3-5.87 3.415-6.22 3.626c-6.216 3.592-6.111 4.034 2.03 8.533l10.68 6.064 7.626 4.41 5.031 2.886c11.519 7.017 10.172 6.85 18.268 2.257l9.503-5.374c1.668-.936 5.461-3.177 8.427-4.98s5.942-3.54 6.611-3.861c3.588-1.725 9.586-5.547 9.824-6.261.151-.452-3.954-3.222-9.122-6.157l-14.085-8.063c-9.902-5.761-17.932-10.184-18.524-10.205-.231-.008-3.438 1.718-7.128 3.836m-91.848 53.197L82.6 88.423l-49.686 28.696-1.887 1.159v193.557l2.306 1.614c1.269.887 5.703 3.502 9.854 5.812a1810.7 1810.7 0 0 1 38.023 21.903l8.957 5.167c.156 0 4.935 2.736 10.62 6.08 15.887 9.345 13.634 8.824 20.852 4.819l17.145-9.804 49.895-28.769c.692-.427 3.145-1.854 5.451-3.172l89.727-51.753-.018-48.199-2.086-1.477c-1.147-.813-2.841-1.885-3.764-2.383-6.515-3.514-18.438-10.321-22.643-12.927-2.767-1.715-6.99-4.111-9.384-5.323l-4.352-2.205-19.543 11.189-10.902 6.141c-12.706 7.086-12.549 6.225-2.185 11.991l22.316 12.799c2.158 1.27 5.151 2.944 6.649 3.719 3.512 1.815 3.427 2.797-.426 4.939l-18.651 10.701-19.287 10.971-15.226 8.655-25.229 14.442c-2.996 1.675-19.107 11.085-20.852 12.18-.742.465-3.573 2.064-6.29 3.554s-6.827 3.844-9.133 5.23c-7.856 4.725-7.068 4.662-13.032 1.04-2.979-1.809-7.45-4.381-9.935-5.715s-5.127-2.81-5.871-3.28-5.596-3.253-10.784-6.184l-9.434-5.329.02-146.123 14.455-8.22 26.615-15.305 27.528-15.891c.771-.463 4.327-2.471 7.901-4.461s6.499-3.893 6.499-4.226c0-.521-6.38-4.44-17.61-10.816l-21.051-12.242c-2.598-1.82-1.027-2.454-17.547 7.086m180.737-7.139c-.923.698-4.508 2.846-7.967 4.773l-7.77 4.365-45.899 26.562-40.67 23.384-41.929 24.199c-10.608 6.096-19.757 11.546-20.331 12.111-.78.768-1.059 7.025-1.106 24.815l-.063 23.787 3.622 2.28c3.506 2.208 9.687 5.809 28.547 16.633 4.945 2.838 9.321 5.161 9.723 5.161.66 0 17.137-9.076 24.472-13.479l9.643-5.672c3.69-2.151 6.673-4.287 6.63-4.749-.068-.717-6.99-5.094-12.5-7.904-.922-.471-5.828-3.31-10.901-6.309l-12.788-7.318c-4.36-2.28-4.398-2.725-.42-4.862 1.73-.929 4.654-2.615 6.499-3.747s6.562-3.865 10.482-6.073l8.536-4.865c.774-.468 5.68-3.297 10.901-6.287l82.12-47.278c3.425-2.399 3.925-2.21 21.894 8.27 11.549 6.736 20.583 11.796 21.461 12.021.602.154 1.437 1.178 1.855 2.277 1.265 3.328 1.051 143.171-.222 144.739-1.006 1.239-3.583 2.8-21.597 13.079l-19.287 11.118-29.297 16.804-6.972 4.063c-5.971 3.428-6.248 3.866-3.363 5.322 2.487 1.256 25.968 14.839 34.066 19.707 4.808 2.89 4.975 2.926 7.548 1.609 3.7-1.895 10.022-5.449 16.886-9.492l29.148-17.041c1.273-.699 7.499-4.247 13.837-7.885l16.763-9.59 5.241-2.976V118.353l-2.435-1.734c-1.34-.954-2.635-1.734-2.878-1.734s-5.223-2.83-11.067-6.29l-10.937-6.289c-.172 0-6.266-3.513-13.542-7.806l-24.13-14.004-14.63-8.546c-4.262-2.685-4.867-2.771-7.173-1.026m-90.986 295.041l-13.417 7.798c-13.014 7.293-18.448 10.591-18.448 11.195 0 .367 6.698 4.507 14.884 9.199l20.336 11.787c6.382 3.811 4.881 4.149 19.706-4.436 22.031-12.758 27.254-15.927 27.254-16.538 0-.603-11.267-7.458-23.48-14.286l-11.74-6.761c-6.572-3.912-4.585-4.181-15.095 2.042" fill-rule="evenodd"/></svg>